<svg width="584" height="76" viewBox="0 0 584 76" fill="none" xmlns="http://www.w3.org/2000/svg">
<path d="M24.44 31.8C25.2 31.8 25.36 32.28 25.36 33.64C25.36 36.04 24.68 37.4 22.92 38.24C21.36 39 18.84 39.44 16.52 39.44C6.72 39.44 1.92 32.36 1.92 24.8C1.92 19.92 4.04 15.76 7.6 13C9.92 11.2 13 9.96 16.44 9.96C18.92 9.96 21.52 10.56 22.88 11.2C24.64 12 24.88 12.88 24.88 15.56C24.88 17.32 24.52 17.52 24.04 17.52C22.96 17.52 22.84 15.48 21.28 13.88C19.72 12.28 17.96 11.6 15.72 11.6C10 11.6 5.32 16.88 5.32 24.52C5.32 32.4 10.2 37.8 16 37.8C19.32 37.8 21.56 36 23.04 33.52C23.68 32.44 23.8 31.8 24.44 31.8ZM43.0209 11.52C37.1809 11.52 32.4209 16.32 32.4209 23.96C32.4209 31.36 36.6609 37.8 43.3409 37.8C49.9009 37.8 53.9809 32.24 53.9809 25.32C53.9809 18.16 49.8209 11.52 43.0209 11.52ZM57.3409 24.56C57.3409 32.68 51.3809 39.44 43.2209 39.44C38.3409 39.44 34.5809 37.68 32.1409 34.76C30.1009 32.28 29.0209 29.2 29.0209 25C29.0209 17.08 34.9009 9.96 43.2209 9.96C47.7809 9.96 51.3809 11.56 53.7809 14.24C56.2209 16.92 57.3409 20.4 57.3409 24.56ZM69.8475 23.52C73.8075 23.52 77.6075 22.04 77.6075 17.48C77.6075 12.28 73.4875 12.08 70.0075 12.08C70.0075 12.08 68.0075 12.08 67.3675 12.08C66.7275 12.08 66.4475 12.32 66.4475 12.8V22.96C66.4475 23.24 66.6475 23.52 67.1275 23.52C67.3675 23.52 69.8475 23.52 69.8475 23.52ZM83.7675 37.56C84.0875 37.76 84.5275 37.92 84.5275 38.36C84.5275 38.76 84.1675 39 83.6875 39H81.4075C80.2875 39 79.8875 38.44 79.3675 37.52C78.6075 36.28 77.5275 33.04 76.5275 30.6C75.2875 27.68 73.9675 25.76 71.3675 25.28C70.7275 25.16 69.6875 25.08 68.7675 25.08C67.9275 25.08 67.1675 25.12 66.9275 25.16C66.5675 25.2 66.4475 25.36 66.4475 25.64C66.4475 25.88 66.4475 32.44 66.4475 32.44C66.4475 35.2 66.7275 36.12 67.0475 36.68C67.3675 37.2 67.9675 37.48 68.2475 37.6C68.6875 37.84 68.8475 38.08 68.8475 38.36C68.8475 38.84 68.4075 39 67.8875 39H61.9675C61.4475 39 61.0475 38.84 61.0475 38.36C61.0475 38.08 61.2075 37.84 61.6475 37.6C61.9275 37.48 62.5275 37.2 62.8075 36.68C63.1675 36.12 63.4075 35.2 63.4075 32.44V16.44C63.4075 13.32 63.4075 12.68 62.3275 12.04C61.8875 11.8 61.2475 11.68 61.2475 11.12C61.2475 10.68 61.6075 10.44 62.2075 10.44H66.4475C68.1675 10.44 69.8475 10.4 71.4075 10.4C74.0475 10.4 77.0875 10.64 79.0075 12.36C80.4475 13.68 81.0075 15.4 81.0075 17.04C81.0075 21.12 77.9675 23.52 74.4875 24.08C74.2075 24.12 74.1675 24.2 74.1675 24.32C74.1675 24.4 74.2075 24.48 74.4875 24.52C77.0875 24.96 78.2075 26.44 80.0075 30.76C82.0875 35.8 82.6875 37.08 83.7675 37.56ZM107.207 31.6C107.727 31.6 108.127 31.84 108.127 32.52C108.127 33 108.007 33.36 107.807 34.12C107.127 36.72 107.207 39.32 105.007 39.32C103.887 39.32 102.167 39 98.4072 39H88.4872C87.8072 39 87.3672 38.88 87.3672 38.36C87.3672 38 87.7272 37.84 88.0472 37.64C88.5272 37.36 88.9272 37 89.2072 36.6C89.5272 36.04 89.7272 35.36 89.7272 32.56V16.12C89.7272 13.28 89.7272 12.64 88.6472 12.08C88.2072 11.8 87.5672 11.68 87.5672 11.12C87.5672 10.68 87.9272 10.44 88.5272 10.44H98.8072C102.687 10.44 104.407 10.12 105.447 10.12C106.167 10.12 106.807 10.4 106.847 11.2C106.887 11.8 106.887 12.76 106.927 13.72C106.967 14.64 107.007 15.56 107.007 16.24C107.007 17.16 106.687 17.44 106.207 17.44C105.727 17.44 105.447 17.32 105.127 16.52C104.567 15.16 104.407 14.04 103.007 13.08C101.767 12.2 99.3272 12.08 96.2472 12.08H93.5672C93.0072 12.08 92.8072 12.32 92.8072 12.8C92.8072 13.28 92.8072 22.32 92.8072 22.32C92.8072 22.92 92.9672 23.12 93.6472 23.12C94.5272 23.12 95.8072 23.12 97.7672 23C99.3672 22.92 100.647 22.8 102.087 22.8C102.767 22.8 103.527 22.8 103.527 23.4C103.527 23.72 103.407 23.92 103.367 24.12C103.167 25.12 102.767 25.2 101.767 25.2C100.487 25.2 99.0872 25.04 97.3672 25C95.8472 24.96 94.0872 24.92 93.2872 24.92C92.9272 24.92 92.8072 25.12 92.8072 25.44V33.96C92.8072 35.76 92.8472 36.56 93.3672 36.92C93.8872 37.28 95.2872 37.4 96.7272 37.4C97.8872 37.4 99.0872 37.32 99.8072 37.24C103.247 36.8 104.087 35.72 105.967 32.64C106.367 31.96 106.647 31.6 107.207 31.6Z" fill="#2E3C99"/>
<path d="M565 29.32C566.04 28.28 568.68 26.96 572.16 26.96C577.24 26.96 581.2 30 581.2 34.56C581.2 36.52 580.4 38.6 578.6 40.32C575.2 43.6 569.52 45.24 566.6 49C565.48 50.44 565.24 51.84 565.24 52.2C565.24 52.76 565.48 53.04 566.04 53.04H576.48C577.44 53.04 578.28 53 578.84 52.84C579.56 52.64 579.96 52.12 580.28 51.52C580.52 51.08 580.72 51.04 580.96 51.04C581.36 51.04 581.48 51.32 581.48 51.76C581.48 52.08 581.4 52.88 581.32 53.64C581.08 55.88 581.04 56.16 579 56.16C577.56 56.16 575.36 56 573.28 56H564.96C563.48 56 563.24 55.36 563.24 54.08C563.24 52.56 563.72 48.88 567.32 45.76C570.24 43.2 572.84 41.88 575.12 39.88C577 38.24 577.8 36.2 577.8 34.4C577.8 31.6 575.92 28.56 572.32 28.56C570.68 28.56 569.36 29.2 568.36 30.16C567.32 31.16 566.64 32.52 566.04 33.76C565.72 34.44 565.4 34.64 564.96 34.64C564.08 34.64 564.04 33.52 564.04 32.56C564.04 31.4 564.28 30 565 29.32Z" fill="#2E3C99"/>
<path d="M132.44 44.992C132.44 47.872 132.568 49.92 133.08 51.136C134.168 53.696 136.472 53.376 136.472 54.784C136.472 55.68 135.64 56 134.488 56H123.992C122.84 56 122.008 55.68 122.008 54.784C122.008 53.376 124.248 53.76 125.4 51.136C125.912 49.984 126.04 47.744 126.04 44.992V20.096C126.04 15.488 125.848 14.208 124.376 13.184C123.352 12.48 122.328 12.416 122.328 11.392C122.328 10.752 122.968 10.304 124.12 10.304H134.36C135.448 10.304 136.088 10.752 136.088 11.392C136.088 12.416 135.128 12.48 134.104 13.184C132.568 14.208 132.44 15.488 132.44 20.096V44.992ZM185.052 10.304C186.46 10.304 187.1 10.688 187.1 11.52C187.1 12.48 186.076 12.736 185.244 13.12C183.58 13.888 182.364 14.912 181.98 20.736C181.724 25.024 181.724 53.504 181.724 55.68C181.724 56.128 181.468 56.512 180.828 56.512H178.268C177.692 56.512 177.372 56.32 176.988 55.808L151.772 20.416C151.58 20.16 151.516 20.032 151.324 20.032C151.196 20.032 151.068 20.16 151.068 20.352C151.068 25.792 151.132 42.24 151.324 45.376C151.58 50.688 153.244 52.224 155.612 53.184C156.572 53.568 157.212 54.016 157.212 54.784C157.212 55.552 156.444 56 155.356 56H143.9C142.428 56 141.98 55.488 141.98 54.784C141.98 52.48 147.036 54.976 147.356 45.376C147.484 42.24 147.612 17.216 147.612 15.744C147.612 15.232 147.42 15.04 147.228 14.848C146.716 14.336 146.14 13.888 145.372 13.504C144.092 12.864 142.364 12.736 142.364 11.584C142.364 10.624 143.324 10.304 144.348 10.304H151.068C152.092 10.304 152.732 10.56 153.244 11.264L177.628 45.376C177.884 45.696 177.948 45.824 178.076 45.824C178.268 45.824 178.332 45.696 178.332 45.504C178.332 38.464 178.332 24.768 178.14 20.736C177.884 15.36 176.668 14.016 174.812 13.248C173.916 12.864 172.828 12.608 172.828 11.584C172.828 10.752 173.596 10.304 174.94 10.304H185.052ZM226.351 11.712C226.479 13.376 226.479 14.976 226.543 16.576C226.607 17.792 226.671 19.072 226.671 20.352C226.671 21.376 226.287 22.272 224.879 22.272C222.255 22.272 223.343 17.088 218.735 14.72C216.815 13.76 215.023 13.76 212.015 13.76C211.311 13.76 211.183 14.08 211.183 14.592C211.183 14.912 211.183 44.864 211.183 44.864C211.183 47.872 211.311 49.984 211.887 51.2C213.039 53.568 215.215 53.44 215.215 54.784C215.215 55.68 214.383 56 213.423 56H202.479C201.519 56 200.751 55.68 200.751 54.784C200.751 53.248 203.055 53.632 204.143 51.072C204.591 49.984 204.719 47.872 204.719 44.864C204.719 44.864 204.719 14.912 204.719 14.592C204.719 14.144 204.591 13.76 203.887 13.76C200.111 13.76 198.639 13.888 196.655 15.04C192.815 17.28 193.711 22.272 191.087 22.272C189.999 22.272 189.359 21.696 189.359 20.352C189.359 18.88 189.423 17.728 189.487 16.576C189.551 15.296 189.487 13.504 189.615 11.712C189.679 10.432 190.383 9.856 192.303 9.856C194.223 9.856 197.615 10.304 203.247 10.304H212.719C218.415 10.304 221.807 9.856 223.727 9.856C225.263 9.856 226.223 10.176 226.351 11.712ZM262.484 43.456C263.444 43.456 264.276 44.16 264.276 45.248C264.276 45.888 264.02 46.848 263.764 47.744C262.74 51.008 263.188 56.512 258.964 56.512C257.236 56.512 254.42 56 248.212 56H231.572C230.42 56 229.588 55.68 229.588 54.784C229.588 53.376 231.828 53.76 232.916 51.2C233.428 50.048 233.62 47.936 233.62 44.992V19.264C233.62 15.36 233.556 14.208 231.828 13.184C230.996 12.672 229.908 12.48 229.908 11.456C229.908 10.816 230.548 10.304 231.636 10.304H248.276C254.292 10.304 257.684 9.856 259.54 9.856C260.756 9.856 262.036 10.112 262.1 11.648C262.228 13.568 262.42 18.56 262.42 20.416C262.42 21.568 261.908 22.272 260.564 22.272C259.86 22.272 259.284 21.888 258.708 20.416C257.94 18.56 257.428 16.576 255.188 15.104C253.012 13.696 249.108 13.568 243.924 13.568H241.428C240.34 13.568 240.02 14.016 240.02 14.912V28.864C240.02 30.016 240.34 30.272 241.492 30.272C243.028 30.272 245.204 30.272 247.764 30.144C250.132 30.016 252.82 29.632 254.484 29.632C255.764 29.632 256.788 29.76 256.788 30.912C256.788 31.424 256.66 31.744 256.596 32.256C256.404 33.92 255.7 34.24 253.46 34.24C251.86 34.24 249.748 34.048 247.38 33.984C245.396 33.92 242.58 33.92 240.852 33.92C240.276 33.92 240.02 34.24 240.02 34.752V45.888C240.02 49.6 240.084 51.072 241.044 51.84C241.876 52.48 243.54 52.672 245.716 52.672C250.068 52.672 253.204 52.16 255.252 50.944C259.412 48.512 259.924 43.52 262.484 43.456ZM284.496 30.912C290 30.912 295.76 28.864 295.76 21.888C295.76 14.976 291.28 13.632 284.752 13.632C284.752 13.632 281.808 13.632 280.848 13.632C279.952 13.632 279.568 13.952 279.568 14.72V30.016C279.568 30.528 279.888 30.912 280.592 30.912C280.912 30.912 284.496 30.912 284.496 30.912ZM307.28 53.312C307.92 53.76 308.752 54.016 308.752 54.848C308.752 55.68 307.984 56 307.152 56H302.864C300.816 56 299.92 55.232 298.96 53.696C297.808 51.84 296.208 47.168 294.48 43.072C292.432 38.208 290.256 35.264 286.288 34.432C285.456 34.24 284.048 34.176 282.832 34.176C281.744 34.176 280.72 34.24 280.272 34.304C279.76 34.368 279.568 34.624 279.568 35.136C279.568 35.392 279.568 44.8 279.568 44.8C279.568 49.28 280.016 50.688 280.464 51.584C281.488 53.632 283.6 53.312 283.6 54.784C283.6 55.68 282.768 56 281.808 56H270.864C269.904 56 269.136 55.68 269.136 54.784C269.136 53.632 271.184 53.376 272.272 51.584C272.784 50.688 273.168 49.28 273.168 44.8V19.648C273.168 15.424 273.168 14.208 271.376 13.184C270.544 12.672 269.456 12.48 269.456 11.456C269.456 10.816 270.096 10.304 271.184 10.304H276.88C280.016 10.304 283.664 10.24 286.736 10.24C291.216 10.24 296.272 10.624 299.408 13.312C301.968 15.488 302.8 18.368 302.8 21.056C302.8 22.848 302.416 24.576 301.776 25.856C299.856 29.696 296.208 31.488 292.368 32.064C291.984 32.128 291.856 32.256 291.856 32.448C291.856 32.64 291.984 32.768 292.368 32.832C296.912 33.472 298.768 36.224 301.648 43.136C304.848 50.752 305.808 52.416 307.28 53.312ZM330.633 19.008L323.081 36.736C322.953 36.992 322.953 37.12 322.953 37.184C322.953 37.376 323.081 37.568 323.401 37.568H337.865C338.121 37.568 338.249 37.44 338.249 37.248C338.249 37.184 338.249 37.12 338.121 36.8L331.337 19.072C331.145 18.624 331.145 18.56 330.953 18.56C330.825 18.56 330.761 18.688 330.633 19.008ZM351.881 52.48C353.289 53.824 354.633 53.76 354.633 54.848C354.633 55.552 354.185 56 352.841 56H342.217C341.193 56 340.617 55.552 340.617 54.848C340.617 53.376 343.305 53.824 343.305 51.52C343.305 50.688 342.985 49.472 342.153 47.232L339.977 41.6C339.785 41.088 339.465 40.896 338.761 40.896H321.993C321.545 40.896 321.289 41.088 321.097 41.472C319.305 45.76 318.345 48.576 318.345 50.496C318.345 54.016 321.289 53.184 321.289 54.784C321.289 55.616 320.521 56 319.433 56H310.537C309.321 56 308.617 55.68 308.617 54.912C308.617 53.504 310.601 53.76 312.713 50.56C313.673 49.152 314.633 47.232 315.273 45.696L330.953 10.432C331.209 9.92 331.465 9.792 331.913 9.792H333.961C334.473 9.792 334.729 9.984 334.921 10.432L348.873 46.848C350.089 49.984 350.793 51.392 351.881 52.48ZM378.826 53.12C384.394 53.12 387.338 49.472 388.81 47.296C390.154 45.312 390.73 43.52 392.074 43.52C393.674 43.52 393.866 44.992 393.866 46.272C393.866 48.64 393.482 52.032 391.37 53.696C388.554 55.872 383.498 56.704 379.274 56.704C364.362 56.704 355.722 45.888 355.722 33.28C355.722 19.072 366.73 9.536 379.658 9.536C384.33 9.536 390.026 10.688 391.946 12.992C392.906 14.016 393.098 16 393.098 18.752C393.098 20.864 392.842 22.208 391.37 22.208C389.45 22.208 389.322 19.84 387.21 17.152C385.482 14.912 382.73 12.928 378.314 12.928C370.058 12.928 362.826 20.224 362.826 32.64C362.826 46.4 370.89 53.12 378.826 53.12ZM433.463 11.712C433.591 13.376 433.591 14.976 433.655 16.576C433.719 17.792 433.783 19.072 433.783 20.352C433.783 21.376 433.399 22.272 431.991 22.272C429.367 22.272 430.455 17.088 425.847 14.72C423.927 13.76 422.135 13.76 419.127 13.76C418.423 13.76 418.295 14.08 418.295 14.592C418.295 14.912 418.295 44.864 418.295 44.864C418.295 47.872 418.423 49.984 418.999 51.2C420.151 53.568 422.327 53.44 422.327 54.784C422.327 55.68 421.495 56 420.535 56H409.591C408.631 56 407.863 55.68 407.863 54.784C407.863 53.248 410.167 53.632 411.255 51.072C411.703 49.984 411.831 47.872 411.831 44.864C411.831 44.864 411.831 14.912 411.831 14.592C411.831 14.144 411.703 13.76 410.999 13.76C407.223 13.76 405.751 13.888 403.767 15.04C399.927 17.28 400.823 22.272 398.199 22.272C397.111 22.272 396.471 21.696 396.471 20.352C396.471 18.88 396.535 17.728 396.599 16.576C396.663 15.296 396.599 13.504 396.727 11.712C396.791 10.432 397.495 9.856 399.415 9.856C401.335 9.856 404.727 10.304 410.359 10.304H419.831C425.527 10.304 428.919 9.856 430.839 9.856C432.375 9.856 433.335 10.176 433.463 11.712ZM447.133 44.992C447.133 47.872 447.261 49.92 447.773 51.136C448.861 53.696 451.165 53.376 451.165 54.784C451.165 55.68 450.333 56 449.181 56H438.685C437.533 56 436.701 55.68 436.701 54.784C436.701 53.376 438.941 53.76 440.093 51.136C440.605 49.984 440.733 47.744 440.733 44.992V20.096C440.733 15.488 440.541 14.208 439.069 13.184C438.045 12.48 437.021 12.416 437.021 11.392C437.021 10.752 437.661 10.304 438.813 10.304H449.053C450.141 10.304 450.781 10.752 450.781 11.392C450.781 12.416 449.821 12.48 448.797 13.184C447.261 14.208 447.133 15.488 447.133 20.096V44.992ZM478.704 12.864C468.592 12.864 463.344 22.016 463.344 31.744C463.344 43.712 469.68 53.248 479.536 53.248C488.816 53.248 494.896 45.376 494.896 34.112C494.896 24.192 489.584 12.864 478.704 12.864ZM502 32.768C502 45.312 492.912 56.704 479.088 56.704C465.008 56.704 456.24 47.424 456.24 33.792C456.24 20.928 465.2 9.536 479.152 9.536C493.36 9.536 502 19.264 502 32.768ZM549.542 10.304C550.95 10.304 551.59 10.688 551.59 11.52C551.59 12.48 550.566 12.736 549.734 13.12C548.07 13.888 546.854 14.912 546.47 20.736C546.214 25.024 546.214 53.504 546.214 55.68C546.214 56.128 545.958 56.512 545.318 56.512H542.758C542.182 56.512 541.862 56.32 541.478 55.808L516.262 20.416C516.07 20.16 516.006 20.032 515.814 20.032C515.686 20.032 515.558 20.16 515.558 20.352C515.558 25.792 515.622 42.24 515.814 45.376C516.07 50.688 517.734 52.224 520.102 53.184C521.062 53.568 521.702 54.016 521.702 54.784C521.702 55.552 520.934 56 519.846 56H508.39C506.918 56 506.47 55.488 506.47 54.784C506.47 52.48 511.526 54.976 511.846 45.376C511.974 42.24 512.102 17.216 512.102 15.744C512.102 15.232 511.91 15.04 511.718 14.848C511.206 14.336 510.63 13.888 509.862 13.504C508.582 12.864 506.854 12.736 506.854 11.584C506.854 10.624 507.814 10.304 508.838 10.304H515.558C516.582 10.304 517.222 10.56 517.734 11.264L542.118 45.376C542.374 45.696 542.438 45.824 542.566 45.824C542.758 45.824 542.822 45.696 542.822 45.504C542.822 38.464 542.822 24.768 542.63 20.736C542.374 15.36 541.158 14.016 539.302 13.248C538.406 12.864 537.318 12.608 537.318 11.584C537.318 10.752 538.086 10.304 539.43 10.304H549.542Z" fill="#2E3C99"/>
</svg>
