<svg width="49" height="61" viewBox="0 0 49 61" fill="none" xmlns="http://www.w3.org/2000/svg">
<path d="M48 21C48 27.4765 44.6244 35.5279 39.8481 42.9057C35.2549 50.0006 29.4802 56.2974 24.5 59.7885C19.5198 56.2974 13.7452 50.0006 9.15194 42.9057C4.37563 35.5279 1 27.4765 1 21C1 16.6788 1.01217 8.90314 5.30809 1.43798C6.05086 1.98773 6.84439 2.63016 7.71176 3.33237C7.82311 3.42252 7.93568 3.51366 8.04951 3.60571C9.38361 4.68449 10.8652 5.86647 12.499 6.95679C15.771 9.14036 19.7166 11 24.5051 11C29.2994 11 33.496 9.01036 36.8826 6.77172C38.58 5.64967 40.0927 4.45236 41.3879 3.3905C41.7276 3.11198 42.0489 2.84572 42.3532 2.59364C42.8537 2.17897 43.3079 1.80266 43.7212 1.47326C47.9879 8.92767 48 16.6856 48 21Z" stroke="#323232" stroke-width="3"/>
</svg>
