<svg width="97" height="91" viewBox="0 0 97 91" fill="none" xmlns="http://www.w3.org/2000/svg">
<path d="M26.8276 70.4962C18.2819 73.2729 9.09168 68.5767 6.3047 59.9993C3.51772 51.4218 8.1924 42.2207 16.7382 39.444C20.9994 38.0594 27.0686 38.5583 33.0408 40.158C38.6871 41.6704 44.0513 44.1139 47.4513 46.6299C46.1795 50.6639 43.2761 55.7937 39.5971 60.3361C35.7057 65.1407 31.0889 69.1117 26.8276 70.4962Z" stroke="#F6BED6" stroke-width="3"/>
<path d="M18.5429 33.7547C13.2614 26.4852 14.8878 16.2936 22.1842 10.9925C29.4806 5.69134 39.6759 7.29391 44.9575 14.5634C47.5911 18.1882 48.9921 24.1145 49.3162 30.2888C49.6227 36.1261 48.9564 41.9828 47.6141 45.9939C43.3846 46.0309 37.6086 44.8548 32.1518 42.7595C26.3798 40.5433 21.1765 37.3795 18.5429 33.7547Z" stroke="#F6BED6" stroke-width="3"/>
<path d="M64 73.5271C64 82.6509 56.8109 90 48 90C39.1891 90 32 82.6509 32 73.5271C32 68.9834 34.3106 63.2944 37.614 58.0499C40.7316 53.1003 44.6282 48.7128 48 46.2271C51.3718 48.7128 55.2684 53.1003 58.386 58.0499C61.6894 63.2944 64 68.9834 64 73.5271Z" stroke="#F6BED6" stroke-width=""/>
<path d="M50.9542 14.5634C56.2358 7.2939 66.4311 5.69133 73.7275 10.9925C81.024 16.2936 82.6504 26.4852 77.3688 33.7547C74.7352 37.3795 69.5319 40.5433 63.7599 42.7595C58.3031 44.8548 52.5271 46.0309 48.2976 45.9938C46.9553 41.9827 46.289 36.126 46.5955 30.2888C46.9196 24.1145 48.3206 18.1882 50.9542 14.5634Z" stroke="#F6BED6" stroke-width="3"/>
<path d="M79.4518 39.444C87.9975 42.2207 92.6722 51.4219 89.8852 59.9993C87.0983 68.5767 77.9081 73.2729 69.3623 70.4962C65.1011 69.1117 60.4842 65.1407 56.5928 60.3361C52.9139 55.7938 50.0104 50.664 48.7387 46.63C52.1387 44.1139 57.5028 41.6704 63.1491 40.158C69.1213 38.5583 75.1905 38.0595 79.4518 39.444Z" stroke="#F6BED6" stroke-width="3"/>
</svg>
