<svg width="90" height="90" viewBox="0 0 90 90" fill="none" xmlns="http://www.w3.org/2000/svg">
<path d="M36.0095 75.7373C29.6558 82.0911 19.3352 82.079 12.9579 75.7017C6.58062 69.3244 6.56855 59.0039 12.9223 52.6501C16.0905 49.4819 21.7247 47.1711 27.7723 45.8851C33.4897 44.6692 39.3785 44.4111 43.5502 45.1094C44.2485 49.2811 43.9904 55.1699 42.7746 60.8874C41.4886 66.9349 39.1777 72.5691 36.0095 75.7373Z" stroke="#323232" stroke-width="2"/>
<path d="M17.2748 60.6502C8.28929 60.6502 1.00009 53.344 1.00009 44.3251C1.00009 35.3063 8.28929 28 17.2748 28C21.7554 28 27.3734 30.35 32.559 33.7169C37.4615 36.9 41.8081 40.8815 44.2642 44.3251C41.8081 47.7687 37.4615 51.7502 32.559 54.9333C27.3734 58.3003 21.7554 60.6502 17.2748 60.6502Z" stroke="#323232" stroke-width="2"/>
<path d="M60.6995 72.0651C60.6995 80.9582 53.5309 88.1581 44.6995 88.1581C35.868 88.1581 28.6995 80.9582 28.6995 72.0651C28.6995 67.6324 31.005 62.0744 34.3081 56.9443C37.4269 52.1005 41.3261 47.8065 44.6995 45.3761C48.0728 47.8065 51.972 52.1005 55.0908 56.9443C58.394 62.0744 60.6995 67.6324 60.6995 72.0651Z" stroke="#323232" stroke-width="2"/>
<path d="M61 17.093C61 8.19994 53.8314 1 45 1C36.1686 1 29 8.19994 29 17.093C29 21.5257 31.3055 27.0837 34.6086 32.2138C37.7274 37.0576 41.6267 41.3517 45 43.782C48.3733 41.3517 52.2726 37.0576 55.3914 32.2138C58.6945 27.0837 61 21.5257 61 17.093Z" stroke="#323232" stroke-width="2"/>
<path d="M72.2037 28C81.1892 28 88.4784 35.3062 88.4784 44.3251C88.4784 53.344 81.1892 60.6502 72.2037 60.6502C67.7232 60.6502 62.1052 58.3003 56.9196 54.9333C52.017 51.7502 47.6704 47.7687 45.2144 44.3251C47.6704 40.8815 52.017 36.9 56.9196 33.7169C62.1052 30.3499 67.7232 28 72.2037 28Z" stroke="#323232" stroke-width="2"/>
<path d="M52.6502 13.9222C59.0039 7.56842 69.3245 7.58049 75.7018 13.9578C82.079 20.3351 82.0911 30.6556 75.7374 37.0094C72.5692 40.1776 66.935 42.4884 60.8874 43.7744C55.17 44.9902 49.2811 45.2484 45.1094 44.5501C44.4112 40.3784 44.6693 34.4896 45.8851 28.7721C47.1711 22.7246 49.482 17.0904 52.6502 13.9222Z" stroke="#323232" stroke-width="2"/>
<path d="M13.9219 37.0094C7.56812 30.6556 7.58018 20.3351 13.9575 13.9578C20.3348 7.5805 30.6553 7.56843 37.0091 13.9222C40.1773 17.0904 42.4881 22.7246 43.7741 28.7721C44.9899 34.4896 45.248 40.3784 44.5498 44.5501C40.3781 45.2484 34.4893 44.9902 28.7718 43.7744C22.7243 42.4884 17.0901 40.1776 13.9219 37.0094Z" stroke="#323232" stroke-width="2"/>
<path d="M75.7373 52.6501C82.0911 59.0039 82.079 69.3244 75.7017 75.7017C69.3244 82.079 59.0039 82.0911 52.6501 75.7373C49.4819 72.5691 47.1711 66.9349 45.8851 60.8874C44.6692 55.1699 44.4111 49.2811 45.1094 45.1094C49.2811 44.4111 55.1699 44.6692 60.8874 45.885C66.9349 47.171 72.5691 49.4819 75.7373 52.6501Z" stroke="#323232" stroke-width="2"/>
</svg>
