<svg width="97" height="91" viewBox="0 0 97 91" fill="none" xmlns="http://www.w3.org/2000/svg">
<path d="M26.8276 70.4963C18.2819 73.273 9.09168 68.5768 6.3047 59.9993C3.51772 51.4219 8.1924 42.2207 16.7382 39.4441C20.9994 38.0595 27.0686 38.5584 33.0408 40.1581C38.6871 41.6705 44.0513 44.114 47.4513 46.63C46.1795 50.664 43.2761 55.7938 39.5971 60.3361C35.7057 65.1407 31.0889 69.1117 26.8276 70.4963Z" stroke="#323232" stroke-width="2"/>
<path d="M18.5427 33.7547C13.2611 26.4852 14.8875 16.2936 22.1839 10.9925C29.4803 5.69134 39.6757 7.29391 44.9573 14.5634C47.5909 18.1882 48.9919 24.1145 49.316 30.2888C49.6224 36.1261 48.9562 41.9828 47.6139 45.9939C43.3843 46.0309 37.6084 44.8548 32.1515 42.7595C26.3796 40.5433 21.1763 37.3795 18.5427 33.7547Z" stroke="#323232" stroke-width="2"/>
<path d="M64 73.5271C64 82.6509 56.8109 90 48 90C39.1891 90 32 82.6509 32 73.5271C32 68.9834 34.3106 63.2944 37.614 58.0499C40.7316 53.1003 44.6282 48.7128 48 46.2271C51.3718 48.7128 55.2684 53.1003 58.386 58.0499C61.6894 63.2944 64 68.9834 64 73.5271Z" stroke="#323232" stroke-width="2"/>
<path d="M50.9539 14.5634C56.2355 7.2939 66.4309 5.69133 73.7273 10.9925C81.0237 16.2936 82.6501 26.4852 77.3685 33.7547C74.735 37.3795 69.5316 40.5433 63.7597 42.7595C58.3028 44.8548 52.5269 46.0309 48.2973 45.9938C46.9551 41.9827 46.2888 36.126 46.5952 30.2888C46.9193 24.1145 48.3204 18.1882 50.9539 14.5634Z" stroke="#323232" stroke-width="2"/>
<path d="M79.4515 39.444C87.9973 42.2207 92.672 51.4219 89.885 59.9993C87.098 68.5767 77.9078 73.2729 69.362 70.4962C65.1008 69.1117 60.484 65.1407 56.5926 60.3361C52.9136 55.7938 50.0102 50.664 48.7384 46.63C52.1384 44.1139 57.5026 41.6704 63.1488 40.158C69.1211 38.5583 75.1903 38.0595 79.4515 39.444Z" stroke="#323232" stroke-width="2"/>
</svg>
