<svg width="96" height="90" viewBox="0 0 96 90" fill="none" xmlns="http://www.w3.org/2000/svg">
<path d="M31.7855 72.5628C24.0038 77.0555 14.038 74.3727 9.52861 66.5622C5.01918 58.7516 7.67868 48.7796 15.4604 44.2868C19.3406 42.0466 25.381 41.2727 31.5553 41.5957C37.3926 41.9011 43.1476 43.176 46.9964 44.9301C46.5911 49.1404 44.8177 54.7618 42.1635 59.9697C39.3561 65.4784 35.6658 70.3225 31.7855 72.5628Z" stroke="#323232" stroke-width="2"/>
<path d="M15.4605 45.4419C7.67876 40.9491 5.01926 30.9771 9.52869 23.1666C14.0381 15.356 24.0039 12.6732 31.7856 17.166C35.6658 19.4062 39.3562 24.2504 42.1636 29.759C44.8178 34.967 46.5912 40.5883 46.9965 44.7986C43.1477 46.5528 37.3927 47.8276 31.5554 48.133C25.381 48.456 19.3407 47.6822 15.4605 45.4419Z" stroke="#323232" stroke-width="2"/>
<path d="M63.6921 72.5271C63.6921 81.6509 56.503 89 47.6921 89C38.8813 89 31.6921 81.6509 31.6921 72.5271C31.6921 67.9834 34.0027 62.2944 37.3061 57.0499C40.4238 52.1003 44.3204 47.7128 47.6921 45.2271C51.0639 47.7128 54.9605 52.1003 58.0781 57.0499C61.3816 62.2944 63.6921 67.9834 63.6921 72.5271Z" stroke="#323232" stroke-width="2"/>
<path d="M63.6921 17.093C63.6921 8.19994 56.5236 1 47.6921 1C38.8607 1 31.6921 8.19994 31.6921 17.093C31.6921 21.5257 33.9976 27.0837 37.3008 32.2138C40.4196 37.0576 44.3188 41.3517 47.6921 43.782C51.0655 41.3517 54.9647 37.0576 58.0835 32.2138C61.3866 27.0837 63.6921 21.5257 63.6921 17.093Z" stroke="#323232" stroke-width="2"/>
<path d="M63.9066 17.1659C71.6883 12.6732 81.6541 15.356 86.1635 23.1665C90.673 30.9771 88.0135 40.9491 80.2317 45.4419C76.3515 47.6821 70.3112 48.456 64.1369 48.133C58.2995 47.8276 52.5446 46.5527 48.6957 44.7986C49.101 40.5883 50.8745 34.9669 53.5286 29.759C56.336 24.2503 60.0264 19.4062 63.9066 17.1659Z" stroke="#323232" stroke-width="2"/>
<path d="M80.2317 44.2868C88.0134 48.7796 90.6729 58.7516 86.1635 66.5622C81.654 74.3727 71.6883 77.0556 63.9065 72.5628C60.0263 70.3225 56.3359 65.4784 53.5285 59.9697C50.8744 54.7618 49.1009 49.1404 48.6957 44.9302C52.5445 43.176 58.2995 41.9012 64.1368 41.5958C70.3111 41.2727 76.3514 42.0466 80.2317 44.2868Z" stroke="#323232" stroke-width="2"/>
</svg>
