<svg width="96" height="94" viewBox="0 0 96 94" fill="none" xmlns="http://www.w3.org/2000/svg">
<path d="M36.1184 78.5443C29.0961 84.1502 18.8412 82.9878 13.2145 75.9394C7.58781 68.891 8.72624 58.6334 15.7486 53.0275C19.2503 50.2322 25.1069 48.5638 31.2601 47.9599C37.0775 47.389 42.9584 47.7889 47.0262 48.9478C47.2551 53.1713 46.3422 58.9947 44.4967 64.541C42.5446 70.4075 39.6201 75.749 36.1184 78.5443Z" stroke="#323232" stroke-width="2"/>
<path d="M17.067 58.4075C8.30469 56.4168 2.81533 47.6772 4.81344 38.8824C6.81156 30.0877 15.5383 24.5779 24.3006 26.5686C28.6697 27.5613 33.6275 31.0975 37.9383 35.5296C42.0138 39.7198 45.3702 44.5654 47.0024 48.4675C43.8444 51.2814 38.7238 54.201 33.2378 56.2189C27.4351 58.3533 21.4361 59.4002 17.067 58.4075Z" stroke="#323232" stroke-width="2"/>
<path d="M63.6995 76.0651C63.6995 84.9582 56.5309 92.1581 47.6995 92.1581C38.868 92.1581 31.6995 84.9582 31.6995 76.0651C31.6995 71.6324 34.005 66.0744 37.3081 60.9443C40.4269 56.1005 44.3261 51.8065 47.6995 49.3761C51.0728 51.8065 54.972 56.1005 58.0908 60.9443C61.394 66.0744 63.6995 71.6324 63.6995 76.0651Z" stroke="#323232" stroke-width="2"/>
<path d="M70.8596 26.4588C79.6219 24.468 88.3486 29.9778 90.3468 38.7725C92.3449 47.5673 86.8555 56.3069 78.0933 58.2976C73.7241 59.2903 67.7251 58.2434 61.9224 56.109C56.4364 54.0911 51.3158 51.1715 48.1578 48.3576C49.79 44.4555 53.1464 39.61 57.2219 35.4197C61.5327 30.9876 66.4905 27.4514 70.8596 26.4588Z" stroke="#323232" stroke-width="2"/>
<path d="M45.1183 16.5295C49.0291 8.4396 58.7796 5.05691 66.8994 8.9822C75.0193 12.9075 78.4247 22.65 74.514 30.7399C72.5639 34.7738 68.0031 38.809 62.7148 42.0123C57.7152 45.0407 52.2388 47.2211 48.0696 47.9336C46.0382 44.2236 44.3453 38.5775 43.6132 32.7782C42.8389 26.6441 43.1683 20.5634 45.1183 16.5295Z" stroke="#323232" stroke-width="2"/>
<path d="M20.8711 30.1984C16.9603 22.1085 20.3658 12.366 28.4856 8.44074C36.6055 4.51545 46.3559 7.89814 50.2667 15.988C52.2168 20.0219 52.5462 26.1027 51.7718 32.2368C51.0397 38.036 49.3468 43.6822 47.3155 47.3922C43.1462 46.6797 37.6698 44.4993 32.6702 41.4708C27.382 38.2675 22.8212 34.2323 20.8711 30.1984Z" stroke="#323232" stroke-width="2"/>
<path d="M79.3096 53.0275C86.332 58.6334 87.4704 68.8909 81.8438 75.9394C76.2171 82.9878 65.9622 84.1502 58.9398 78.5443C55.4382 75.749 52.5137 70.4075 50.5616 64.541C48.716 58.9947 47.8031 53.1713 48.032 48.9478C52.0999 47.7889 57.9808 47.389 63.7981 47.9599C69.9513 48.5637 75.808 50.2321 79.3096 53.0275Z" stroke="#323232" stroke-width="2"/>
</svg>
