<svg width="26" height="32" viewBox="0 0 26 32" fill="none" xmlns="http://www.w3.org/2000/svg">
<path d="M14.3605 1.26275L25.3605 11.4721C25.7683 11.8505 26 12.3817 26 12.938V30C26 31.1046 25.1046 32 24 32H18.5C17.3954 32 16.5 31.1046 16.5 30V23.9655C16.5 22.3087 15.1569 20.9655 13.5 20.9655H13C11.3431 20.9655 10 22.3087 10 23.9655V30C10 31.1046 9.10457 32 8 32H2C0.895431 32 0 31.1046 0 30V12.938C0 12.3817 0.231705 11.8505 0.639454 11.4721L11.6395 1.26275C12.4067 0.550641 13.5933 0.550643 14.3605 1.26275Z" fill="#232323"/>
</svg>
