<svg width="695" height="558" viewBox="0 0 695 558" fill="none" xmlns="http://www.w3.org/2000/svg">
<path d="M132.5 0L17.7516 57.4238H247.248L132.5 0Z" fill="#232323"/>
<path d="M562.5 136.86L447.752 194.284H677.248L562.5 136.86Z" fill="#232323"/>
<path d="M562.82 194.284L455 317.027H670.64L562.82 194.284Z" fill="#232323"/>
<path d="M132.18 434.507L24.3597 557.25H240L132.18 434.507Z" fill="#232323"/>
<path d="M563 448.863L447.818 484.752H678.181L563 448.863Z" fill="#232323"/>
<path d="M563.181 100.492L448 136.382H678.363L563.181 100.492Z" fill="#232323"/>
<path d="M563.747 484.274L455 557.011H671L563.747 484.274Z" fill="#232323"/>
<path d="M133.243 57.4238L25 130.161H240L133.243 57.4238Z" fill="#232323"/>
<path d="M563 316.788L455.613 448.863H670.387L563 316.788Z" fill="#232323"/>
<path d="M132 130.161L21.1487 168.204H242.851L132 130.161Z" fill="#232323"/>
<path d="M347 253.622L236.149 291.665H457.851L347 253.622Z" fill="#232323"/>
<path d="M131.262 168.443L25 434.507H239L131.262 168.443Z" fill="#232323"/>
<path d="M346.262 290.947L240 557.011H454L346.262 290.947Z" fill="#232323"/>
<path d="M346.82 112L239 240.25H454.641L346.82 112Z" fill="#232323"/>
</svg>
