<svg width="478" height="699" viewBox="0 0 478 699" fill="none" xmlns="http://www.w3.org/2000/svg">
<g filter="url(#filter0_f_73_439)">
<path d="M132.414 461.545L244.489 523.013H20.3382L132.414 461.545Z" fill="black" fill-opacity="0.5"/>
<path d="M132.414 523.013L237.723 654.401H27.105L132.414 523.013Z" fill="black" fill-opacity="0.5"/>
<path d="M343.871 538.38L456.37 576.798H231.373L343.871 538.38Z" fill="black" fill-opacity="0.5"/>
<path d="M343.142 576.285L449.355 654.145H238.386L343.142 576.285Z" fill="black" fill-opacity="0.5"/>
<path d="M343.871 202.355L456.37 240.772H231.373L343.871 202.355Z" fill="black" fill-opacity="0.5"/>
<path d="M343.142 240.26L449.355 318.12H238.386L343.142 240.26Z" fill="black" fill-opacity="0.5"/>
<path d="M131.925 20L243.578 58.4175H20.2727L131.925 20Z" fill="black" fill-opacity="0.5"/>
<path d="M130.711 57.9053L236.433 135.765H26.4409L130.711 57.9053Z" fill="black" fill-opacity="0.5"/>
<path d="M344.359 319.144L457.281 397.516H231.438L344.359 319.144Z" fill="black" fill-opacity="0.5"/>
<path d="M343.871 397.004L448.757 538.38H238.985L343.871 397.004Z" fill="black" fill-opacity="0.5"/>
<path d="M131.925 135.765L240.195 176.487H23.6561L131.925 135.765Z" fill="black" fill-opacity="0.5"/>
<path d="M132.646 176.743L236.433 461.545H27.4177L132.646 176.743Z" fill="black" fill-opacity="0.5"/>
</g>
<defs>
<filter id="filter0_f_73_439" x="0.272705" y="0" width="477.008" height="674.401" filterUnits="userSpaceOnUse" color-interpolation-filters="sRGB">
<feFlood flood-opacity="0" result="BackgroundImageFix"/>
<feBlend mode="normal" in="SourceGraphic" in2="BackgroundImageFix" result="shape"/>
<feGaussianBlur stdDeviation="10" result="effect1_foregroundBlur_73_439"/>
</filter>
</defs>
</svg>
