<svg width="682" height="392" viewBox="0 0 682 392" fill="none" xmlns="http://www.w3.org/2000/svg">
<path d="M342.82 103.623L235 221.895H450.64L342.82 103.623Z" fill="#232323"/>
<path d="M343 221.664L235.613 348.928H450.387L343 221.664Z" fill="#232323"/>
<path d="M128 56L17.1487 92.6573H238.851L128 56Z" fill="#232323"/>
<path d="M127.262 92.8879L21 349.259H235L127.262 92.8879Z" fill="#232323"/>
<path d="M558 241.075L442.818 276.965H673.181L558 241.075Z" fill="#232323"/>
<path d="M558.181 73L443 108.89H673.363L558.181 73Z" fill="#232323"/>
<path d="M558.747 276.486L450 349.223H666L558.747 276.486Z" fill="#232323"/>
<path d="M558.747 0L450 72.7368H666L558.747 0Z" fill="#232323"/>
<path d="M558 109L450.613 241.075H665.387L558 109Z" fill="#232323"/>
</svg>
